<svg width="138" height="30" viewBox="0 0 138 30" fill="none" xmlns="http://www.w3.org/2000/svg">
<path d="M24.8463 5.84484H24.7844C23.3462 5.83751 21.924 6.1468 20.6188 6.75076C19.3135 7.35473 18.1571 8.23857 17.2318 9.33957C16.3066 8.23815 15.1504 7.35386 13.8451 6.74949C12.5399 6.14511 11.1175 5.83546 9.67915 5.8425H9.63241C7.11762 5.81185 4.69292 6.77776 2.88805 8.52921C1.08319 10.2807 0.0448888 12.6753 0 15.1898C0.0451617 17.7125 1.09001 20.1141 2.90495 21.8668C4.71988 23.6195 7.15642 24.58 9.67915 24.5371C10.422 24.5379 11.1627 24.456 11.8875 24.2929C11.9459 24.2801 12.0043 24.2591 12.0604 24.245C12.3478 24.1749 12.6329 24.0978 12.9086 24.0032C13.0757 23.9459 13.2358 23.8735 13.3994 23.8069C13.563 23.7403 13.723 23.69 13.8796 23.6106C14.1448 23.4867 14.4031 23.3454 14.6566 23.1981C14.7033 23.1713 14.7536 23.1479 14.7991 23.121C15.7205 22.5637 16.5433 21.8578 17.2341 21.0319C17.9255 21.8573 18.7482 22.5631 19.6691 23.121C19.7158 23.1479 19.7649 23.1713 19.8116 23.1981C20.0652 23.3454 20.3234 23.4867 20.5886 23.6106C20.7452 23.6842 20.9088 23.7426 21.07 23.8069C21.2313 23.8711 21.3925 23.9459 21.5596 24.0032C21.8365 24.0978 22.1204 24.1749 22.409 24.245C22.4663 24.2591 22.5259 24.2801 22.5808 24.2929C23.3056 24.4559 24.0462 24.5378 24.7891 24.5371C27.3118 24.58 29.7484 23.6195 31.5633 21.8668C33.3782 20.1141 34.4231 17.7125 34.4682 15.1898C34.4234 12.6773 33.3864 10.2845 31.5838 8.53377C29.7811 6.78299 27.3591 5.81636 24.8463 5.84484ZM24.7844 21.0342C23.8598 21.042 22.9449 20.8454 22.1051 20.4587C21.2653 20.0719 20.5213 19.5044 19.9261 18.7967L17.2294 15.5567L14.5339 18.7967C13.9386 19.5043 13.1943 20.0717 12.3543 20.4583C11.5142 20.8449 10.5992 21.0411 9.67448 21.0331C8.08193 21.0739 6.53806 20.4821 5.38092 19.3872C4.22378 18.2922 3.54765 16.7834 3.50057 15.191C3.54734 13.5985 4.22338 12.0895 5.38059 10.9945C6.5378 9.89945 8.08184 9.30773 9.67448 9.34892C10.5991 9.34071 11.5141 9.53681 12.3541 9.92319C13.1941 10.3096 13.9385 10.8767 14.5339 11.5841L17.2294 14.8241L19.9261 11.5841C20.5214 10.8767 21.2655 10.3094 22.1053 9.9228C22.9451 9.53622 23.8599 9.33986 24.7844 9.34775C26.3771 9.30656 27.9211 9.89828 29.0783 10.9933C30.2355 12.0883 30.9116 13.5973 30.9583 15.1898C30.9116 16.7824 30.2356 18.2916 29.0784 19.3868C27.9212 20.482 26.3772 21.0739 24.7844 21.0331V21.0342Z" fill="#EDE2E2"/>
<path d="M45.5 29.2448V7.09862H49.3172V9.74858C49.8495 8.85977 50.6052 8.12581 51.5092 7.61973C52.4777 7.0441 53.5852 6.74429 54.7118 6.75277C55.6993 6.7249 56.681 6.91216 57.5889 7.30155C58.4968 7.69094 59.3092 8.27315 59.9697 9.00781C61.4192 10.713 62.1591 12.9096 62.0366 15.1443V15.3967C62.1549 17.6504 61.4269 19.8669 59.9954 21.6115C59.3404 22.3629 58.5266 22.9593 57.6128 23.3574C56.699 23.7555 55.708 23.9454 54.7118 23.9133C53.5665 23.9367 52.4352 23.6591 51.4309 23.1082C50.5386 22.6252 49.8046 21.895 49.3172 21.0051V29.2448H45.5ZM53.7654 20.8847C54.3754 20.922 54.9857 20.8159 55.5473 20.5748C56.1089 20.3338 56.6063 19.9645 56.9995 19.4967C57.8218 18.3175 58.2167 16.8929 58.1189 15.4586V15.2062C58.2175 13.7527 57.7858 12.3126 56.9037 11.153C56.5146 10.6959 56.0274 10.3325 55.4783 10.0898C54.9293 9.84702 54.3326 9.73119 53.7327 9.75092C53.1136 9.72655 52.4969 9.83965 51.9267 10.0821C51.3566 10.3245 50.8473 10.6903 50.4354 11.153C49.5331 12.3036 49.0886 13.7474 49.1875 15.2062V15.4586C49.0838 16.9123 49.5175 18.3533 50.4062 19.5084C50.8299 19.9714 51.3508 20.3349 51.9316 20.5728C52.5124 20.8108 53.1386 20.9173 53.7654 20.8847ZM65.4694 23.5978V7.09862H69.2843V10.1902C69.7405 9.15985 70.4956 8.29021 71.4518 7.69398C72.408 7.09775 73.5213 6.80242 74.6473 6.84624V10.4111C73.2259 10.3273 71.8154 10.7034 70.6244 11.4837C70.1409 11.9273 69.7679 12.4778 69.5352 13.0914C69.3025 13.7049 69.2166 14.3643 69.2843 15.017V23.5978H65.4694ZM78.0883 23.5978V7.09862H81.9031V23.5978H78.0883ZM81.5585 3.75461C81.3452 3.96077 81.0932 4.12267 80.8171 4.23096C80.5409 4.33925 80.2461 4.39179 79.9495 4.38556C79.653 4.39179 79.3581 4.33925 79.082 4.23096C78.8059 4.12267 78.5539 3.96077 78.3406 3.75461C78.1273 3.55837 77.9579 3.31915 77.8437 3.05271C77.7295 2.78626 77.6731 2.49864 77.6781 2.2088C77.6709 1.91401 77.7262 1.62103 77.8404 1.34915C77.9546 1.07727 78.1251 0.83267 78.3406 0.63144C78.5539 0.425279 78.8059 0.263384 79.082 0.155093C79.3581 0.0468022 79.653 -0.00573968 79.9495 0.000496716C80.2461 -0.00573968 80.5409 0.0468022 80.8171 0.155093C81.0932 0.263384 81.3452 0.425279 81.5585 0.63144C81.774 0.83267 81.9445 1.07727 82.0587 1.34915C82.1729 1.62103 82.2282 1.91401 82.2209 2.2088C82.226 2.49864 82.1696 2.78626 82.0554 3.05271C81.9412 3.31915 81.7718 3.55837 81.5585 3.75461ZM92.1852 23.9133C90.4125 24.0168 88.657 23.5163 87.2054 22.4937C86.6038 22.0069 86.1188 21.3918 85.7858 20.6933C85.4528 19.9948 85.2803 19.2306 85.281 18.4568H88.8774C88.9215 19.2104 89.2482 19.9197 89.7923 20.4431C90.4763 20.94 91.3158 21.175 92.1583 21.1056C94.1353 21.1056 95.1238 20.401 95.1238 18.9919C95.1381 18.6966 95.0706 18.4032 94.9288 18.1438C94.7869 17.8844 94.5762 17.6693 94.3199 17.522C93.4641 17.0965 92.5403 16.8244 91.5905 16.7182C89.9344 16.5665 88.3414 16.0082 86.953 15.0929C86.4885 14.6665 86.1276 14.1395 85.898 13.5522C85.6683 12.9649 85.576 12.3329 85.628 11.7045C85.6007 10.9917 85.7541 10.2835 86.074 9.64592C86.3939 9.00833 86.87 8.46203 87.4578 8.05789C88.7322 7.16841 90.2577 6.70986 91.8113 6.74926C95.7652 6.74926 97.9209 8.41075 98.2785 11.7337H94.7452C94.6379 11.0845 94.3073 10.4931 93.8105 10.0617C93.2211 9.66419 92.5157 9.47539 91.8066 9.52542C91.1234 9.48532 90.4463 9.67402 89.8822 10.0617C89.6606 10.2248 89.4818 10.4391 89.3609 10.6863C89.2401 10.9335 89.1808 11.2063 89.1882 11.4813C89.1757 11.7475 89.2368 12.012 89.3648 12.2458C89.4928 12.4795 89.6828 12.6735 89.9138 12.8063C90.7586 13.2137 91.6644 13.4801 92.5953 13.595C94.2556 13.7637 95.8595 14.2911 97.2958 15.1408C97.8166 15.5543 98.2252 16.0919 98.4843 16.7043C98.7433 17.3167 98.8445 17.9844 98.7786 18.6461C98.8204 19.3852 98.687 20.1239 98.3891 20.8017C98.0912 21.4794 97.6374 22.0772 97.0645 22.5462C95.6409 23.5437 93.9198 24.0259 92.1852 23.9133ZM107.743 23.8817C107.072 23.9284 106.398 23.8408 105.762 23.6242C105.125 23.4075 104.538 23.0661 104.035 22.6198C103.588 22.134 103.244 21.5625 103.025 20.9399C102.805 20.3172 102.715 19.6565 102.758 18.9978V9.97525H100.55V7.10446H102.758V3.48237H106.575V7.10446H110.197V9.97525H106.575V18.6507C106.575 20.0598 107.206 20.7644 108.468 20.7644C109.103 20.7823 109.736 20.6751 110.33 20.4489V23.4716C109.498 23.7606 108.622 23.8995 107.743 23.8817ZM113.863 23.5978V7.09862H117.68V23.5978H113.863ZM117.333 3.75461C117.12 3.96077 116.868 4.12267 116.592 4.23096C116.315 4.33925 116.021 4.39179 115.724 4.38556C115.428 4.39179 115.133 4.33925 114.857 4.23096C114.58 4.12267 114.328 3.96077 114.115 3.75461C113.902 3.55837 113.732 3.31915 113.618 3.05271C113.504 2.78626 113.448 2.49864 113.453 2.2088C113.445 1.91401 113.501 1.62103 113.615 1.34915C113.729 1.07727 113.9 0.83267 114.115 0.63144C114.328 0.425279 114.58 0.263384 114.857 0.155093C115.133 0.0468022 115.428 -0.00573968 115.724 0.000496716C116.021 -0.00573968 116.315 0.0468022 116.592 0.155093C116.868 0.263384 117.12 0.425279 117.333 0.63144C117.549 0.83267 117.719 1.07727 117.833 1.34915C117.947 1.62103 118.003 1.91401 117.995 2.2088C118.001 2.49864 117.944 2.78626 117.83 3.05271C117.716 3.31915 117.546 3.55837 117.333 3.75461ZM122.317 23.5978V7.09862H126.135V9.71703C126.584 8.82531 127.286 8.08572 128.154 7.59052C129.16 7.01235 130.306 6.72325 131.466 6.7551C132.228 6.71523 132.99 6.83644 133.702 7.11085C134.414 7.38526 135.061 7.80668 135.599 8.34765C136.714 9.7162 137.258 11.4624 137.118 13.2223V23.5978H133.296V13.5658C133.376 12.5854 133.096 11.6094 132.507 10.8212C132.179 10.5039 131.787 10.2608 131.357 10.1084C130.927 9.95596 130.469 9.89781 130.015 9.93787C128.986 9.8982 127.983 10.2665 127.224 10.9626C126.847 11.3453 126.555 11.8034 126.367 12.3068C126.179 12.8102 126.1 13.3475 126.135 13.8836V23.5978H122.317Z" fill="#EDE2E2"/>
</svg>
