<svg width="110" height="43" viewBox="0 0 110 43" fill="none" xmlns="http://www.w3.org/2000/svg">
<path d="M26.3485 3.5552C26.5755 4.08942 26.6777 4.6684 26.6472 5.24807C26.6167 5.82774 26.4544 6.39281 26.1726 6.90027C25.5173 8.01566 24.4789 8.85485 23.2508 9.26155C21.4556 9.95007 19.492 10.0697 17.6265 9.60409C15.7621 9.19271 14.0397 8.29538 12.6342 7.00319L13.1009 6.4948C13.9175 6.99022 14.8152 7.33743 15.7526 7.52039C16.8777 7.72209 18.0309 7.70676 19.1502 7.47521L19.0036 6.37463C18.8093 5.3042 18.9532 4.19983 19.4153 3.21493C19.851 2.33806 20.6079 1.66286 21.5287 1.3297C21.988 1.13409 22.4839 1.03944 22.983 1.05216C23.482 1.06488 23.9725 1.18467 24.4213 1.40343C25.3209 1.8404 26.0129 2.61309 26.3485 3.5552Z" fill="#EDE2E2"/>
<path d="M6.91746 32.9864C5.6641 33.0027 4.41487 32.8392 3.2079 32.501C2.15972 32.1971 1.14265 31.7947 0.170309 31.2991L0.212704 26.2817H0.636653L2.06748 28.8116C2.561 29.7852 3.25872 30.6409 4.11304 31.3203C4.94724 31.8972 5.94638 32.1874 6.95985 32.147C8.11793 32.2021 9.26316 31.8845 10.2274 31.2408C10.6208 30.9726 10.9407 30.6101 11.158 30.1866C11.3753 29.763 11.4832 29.2917 11.4717 28.8158C11.4883 28.3944 11.4182 27.9741 11.2658 27.5808C11.1134 27.1876 10.8819 26.8298 10.5857 26.5297C9.62776 25.7507 8.50361 25.2025 7.30007 24.9271L5.52479 24.3845C3.98514 23.982 2.58523 23.1653 1.47713 22.0231C0.494262 20.9574 -0.0349172 19.5508 0.00178962 18.1016C-0.00558778 17.201 0.187334 16.3101 0.566591 15.4933C0.945849 14.6765 1.50196 13.9542 2.19467 13.3788C3.97791 11.9791 6.2157 11.2883 8.47759 11.4392C9.52129 11.433 10.5619 11.5533 11.5767 11.7974C12.5523 12.0387 13.4943 12.4001 14.3811 12.8732L14.1278 17.4307H13.7038L12.2285 14.816C11.8386 14.0627 11.3008 13.3958 10.6472 12.8552C9.94505 12.4272 9.12718 12.2283 8.30695 12.286C7.34894 12.2868 6.41167 12.5651 5.60852 13.0873C5.21198 13.3175 4.88504 13.6506 4.66227 14.0513C4.4395 14.4521 4.3292 14.9056 4.34303 15.3639C4.32794 15.8012 4.41772 16.2357 4.60487 16.6312C4.79202 17.0267 5.0711 17.3717 5.4188 17.6373C6.38714 18.3262 7.46101 18.8531 8.59842 19.1975L10.4956 19.7454C12.1645 20.1472 13.6768 21.035 14.8411 22.2965C15.7208 23.4031 16.1834 24.7837 16.1479 26.1969C16.1742 27.1543 15.9672 28.1037 15.5447 28.9632C15.1223 29.8228 14.497 30.5666 13.7229 31.1306C11.7199 32.4801 9.32823 33.1323 6.91746 32.9864ZM17.9656 32.359V31.935L18.5559 31.7665C19.0219 31.6631 19.4342 31.3933 19.7154 31.0076C19.9453 30.5964 20.0555 30.129 20.0334 29.6584V16.4609C20.0652 15.9961 19.9542 15.5328 19.7154 15.1329C19.4199 14.79 19.0057 14.5715 18.5559 14.5213L17.9656 14.3952V13.9712L25.6814 11.4795L26.1054 11.9034L25.9793 17.8917V29.6987C25.9577 30.169 26.0682 30.636 26.2983 31.0468C26.5676 31.4256 26.9641 31.6949 27.4154 31.8057L27.8393 31.9318V32.3558L17.9656 32.359ZM38.88 25.0586C37.1839 25.1092 35.498 24.7789 33.9463 24.092V25.5228C33.914 25.9029 34.0334 26.2803 34.2784 26.5727C34.5235 26.865 34.8743 27.0484 35.2542 27.0829L43.1821 28.5583C44.4035 28.7835 45.6029 29.1151 46.7665 29.5492C47.7545 29.9024 48.6387 30.4965 49.3389 31.2779C50.0259 32.1435 50.371 33.2312 50.3086 34.3346C50.3049 35.7227 49.8291 37.0682 48.9594 38.1501C47.9053 39.4289 46.5298 40.4041 44.9743 40.9757C42.8777 41.7514 40.6514 42.1166 38.4169 42.0515C36.6057 42.1128 34.7968 41.8779 33.0613 41.3562C31.9719 41.046 30.997 40.4237 30.2569 39.5661C29.7334 38.9056 29.444 38.0899 29.4345 37.2471C29.4633 36.1474 29.8235 35.082 30.4678 34.1904C31.128 33.1917 31.9987 32.3495 33.0189 31.723C32.2755 31.476 31.6175 31.0228 31.1218 30.4162C30.7414 29.92 30.5341 29.3128 30.5314 28.6876C30.5303 28.1297 30.6836 27.5823 30.9744 27.1062C31.2936 26.5798 31.6529 26.0788 32.0492 25.6076L33.4408 23.8365C32.4555 23.2931 31.6441 22.4821 31.1002 21.4971C30.5564 20.5121 30.3022 19.3934 30.3671 18.2701C30.3376 17.3377 30.5173 16.4106 30.8931 15.5568C31.2689 14.703 31.8313 13.9443 32.5388 13.3364C33.9866 12.0716 36.1162 11.4392 38.9277 11.4392C40.204 11.4172 41.4764 11.5877 42.7019 11.9448C43.6843 12.2292 44.5955 12.7179 45.376 13.3788C46.2502 13.2453 47.1061 13.012 47.9271 12.6835C48.7201 12.3653 49.4542 11.9164 50.0988 11.3555L50.6891 11.7794V13.9299H45.9197C46.9604 15.1324 47.5032 16.6865 47.4374 18.2754C47.459 19.1959 47.2757 20.1096 46.9009 20.9506C46.526 21.7916 45.969 22.5387 45.27 23.1381C43.8215 24.4184 41.6915 25.0586 38.88 25.0586ZM38.8376 24.2107C39.3388 24.2389 39.8375 24.1229 40.2748 23.8765C40.7121 23.63 41.0696 23.2634 41.305 22.8201C41.9271 21.3573 42.1944 19.768 42.0851 18.1821C42.2008 16.6162 41.933 15.0457 41.305 13.6066C41.0718 13.1847 40.7248 12.8365 40.3037 12.6018C39.8825 12.3671 39.404 12.2551 38.9224 12.2786C38.4399 12.2628 37.9627 12.3829 37.5452 12.6252C37.1277 12.8675 36.7866 13.2223 36.561 13.649C35.9209 15.0998 35.6458 16.6853 35.7598 18.2669C35.6526 19.8357 35.9064 21.4082 36.5017 22.8636C36.7188 23.2907 37.0551 23.6458 37.4699 23.8859C37.8847 24.1259 38.3601 24.2405 38.8387 24.216L38.8376 24.2107ZM32.5515 35.8958C32.5023 36.5975 32.6155 37.3012 32.8824 37.9521C33.1493 38.603 33.5627 39.1836 34.0905 39.6488C35.5255 40.6102 37.2444 41.0564 38.9659 40.9143C40.7939 41.0326 42.6187 40.6391 44.2356 39.7781C44.7915 39.4513 45.2496 38.9814 45.5621 38.4173C45.8745 37.8531 46.0299 37.2155 46.0119 36.5709C46.024 36.2094 45.9523 35.8499 45.8022 35.5208C45.6522 35.1916 45.4279 34.9017 45.1471 34.6737C44.2712 34.0766 43.264 33.7003 42.2112 33.5768L34.5791 32.147L33.9039 31.9785C33.495 32.5709 33.1688 33.2163 32.9342 33.8968C32.6945 34.5367 32.5651 35.2126 32.5515 35.8958ZM52.0786 32.359V31.935L52.669 31.7665C53.1199 31.681 53.5203 31.4242 53.7861 31.05C54.0177 30.6378 54.141 30.1736 54.1443 29.7008V16.499C54.1798 16.024 54.0794 15.5487 53.855 15.1286C53.5711 14.7825 53.1619 14.5627 52.7167 14.5171L52.0807 14.3485V13.9246L59.2879 11.4784L59.7118 11.9024L60.0489 14.7693C60.9886 13.8321 62.0597 13.0366 63.2285 12.4079C64.3707 11.7749 65.6545 11.4413 66.9603 11.4381C68.1002 11.3828 69.2307 11.6692 70.2067 12.2606C71.0828 12.89 71.7334 13.7844 72.0625 14.8117C73.1111 13.8048 74.3141 12.9721 75.6258 12.3454C76.7868 11.7693 78.0618 11.4598 79.3576 11.4392C80.1507 11.3716 80.9494 11.4637 81.7063 11.71C82.4632 11.9563 83.1631 12.3518 83.7646 12.8732C84.8107 14.1328 85.3183 15.7538 85.1774 17.3851V29.74C85.134 30.2104 85.2644 30.6803 85.5441 31.061C85.8238 31.4417 86.2333 31.7066 86.6951 31.8057L87.1625 31.935V32.359H77.4223V31.935L77.8463 31.8089C78.2976 31.6981 78.6941 31.4288 78.9634 31.05C79.1933 30.6388 79.3034 30.1714 79.2813 29.7008V16.7937C79.375 15.9346 79.1485 15.0712 78.6454 14.3687C78.3694 14.129 78.0478 13.9476 77.6999 13.8352C77.3521 13.7228 76.9851 13.6819 76.621 13.7147C75.884 13.7163 75.1566 13.8821 74.4918 14.2002C73.7069 14.5873 72.9766 15.0766 72.3201 15.6554C72.4664 16.1353 72.5585 16.6302 72.5946 17.1307C72.637 17.6649 72.6582 18.227 72.6582 18.817V29.7337C72.6258 30.2019 72.7605 30.6665 73.0384 31.0447C73.3163 31.4229 73.7194 31.6903 74.1759 31.7993L74.5543 31.935V32.359H64.7717V31.935L65.362 31.7665C65.8092 31.6563 66.2041 31.394 66.4791 31.0246C66.7109 30.6218 66.8213 30.1606 66.7971 29.6966V16.8361C66.8751 15.9884 66.6592 15.1396 66.1855 14.4323C65.9108 14.1682 65.5817 13.9673 65.2212 13.8435C64.8608 13.7198 64.4777 13.6762 64.0986 13.7158C63.423 13.7231 62.7585 13.8894 62.1591 14.2012C61.4267 14.5838 60.7464 15.0586 60.1347 15.614V29.74C60.0882 30.2047 60.2122 30.6705 60.4836 31.0506C60.755 31.4306 61.1554 31.699 61.6101 31.8057L61.9884 31.935V32.359H52.0786ZM94.7099 32.9949C93.2165 33.0419 91.7564 32.5477 90.5986 31.6033C90.0332 31.1058 89.5894 30.4853 89.3013 29.7895C89.0132 29.0937 88.8885 28.3411 88.9368 27.5895C88.9734 26.8674 89.1749 26.1633 89.5258 25.5311C89.8767 24.899 90.3677 24.3555 90.9611 23.9425C92.852 22.6081 95.0359 21.7477 97.3288 21.4338C97.7789 21.3497 98.2848 21.2582 98.8466 21.1593C99.4083 21.0604 99.9987 20.9544 100.618 20.8413V17.5101C100.722 16.1308 100.483 14.7471 99.9223 13.4826C99.7019 13.1077 99.3819 12.8012 98.9977 12.5973C98.6136 12.3934 98.1805 12.2999 97.7464 12.3274C97.4478 12.313 97.1496 12.364 96.8728 12.477C96.596 12.59 96.3472 12.7621 96.1439 12.9813C95.6693 13.6398 95.4048 14.4263 95.385 15.2378L95.3002 15.702C95.3313 16.6645 95.0174 17.6065 94.4152 18.358C94.1638 18.6317 93.857 18.8487 93.5154 18.9949C93.1737 19.1411 92.8048 19.213 92.4333 19.2059C91.7635 19.2286 91.1118 18.986 90.6198 18.5308C90.3787 18.2966 90.1901 18.0138 90.0666 17.7011C89.943 17.3885 89.8874 17.0532 89.9034 16.7174C89.8919 16.1757 89.9927 15.6375 90.1996 15.1368C90.4064 14.6361 90.7148 14.1836 91.1053 13.808C92.0037 12.9657 93.0957 12.3574 94.2849 12.037C95.6824 11.6328 97.1312 11.4339 98.5858 11.4466C100.68 11.3115 102.749 11.9661 104.384 13.2813C105.748 14.5043 106.43 16.4934 106.43 19.2483V28.5678C106.43 29.8326 107.02 30.465 108.201 30.465H109.128L109.508 30.802C109.029 31.4267 108.437 31.955 107.761 32.359C106.931 32.7682 106.009 32.9569 105.084 32.9069C104.036 32.9648 103.001 32.6589 102.153 32.041C101.433 31.4595 100.934 30.6484 100.741 29.7432C99.9538 30.5926 99.0851 31.3623 98.1471 32.041C97.1296 32.7106 95.9266 33.0415 94.7099 32.9864V32.9949ZM97.2822 30.4226C97.8347 30.4251 98.3788 30.2872 98.8635 30.0219C99.485 29.6637 100.071 29.2471 100.613 28.7777V21.6935L99.7655 21.862C99.4828 21.9185 99.1596 21.9747 98.7957 22.0305C97.624 22.3004 96.5508 22.8917 95.6966 23.738C95.3018 24.1715 94.9964 24.6787 94.7982 25.2305C94.5999 25.7824 94.5126 26.3679 94.5414 26.9536C94.4699 27.8884 94.7563 28.8155 95.3426 29.5471C95.5843 29.8229 95.8828 30.0432 96.2176 30.1928C96.5524 30.3424 96.9155 30.4179 97.2822 30.4141V30.4226Z" fill="#EDE2E2"/>
</svg>
