<svg width="120" height="34" viewBox="0 0 120 34" fill="none" xmlns="http://www.w3.org/2000/svg">
<path d="M41.1901 16.7207C41.1745 15.4554 41.4261 14.2009 41.9283 13.0394C42.4059 11.9466 43.1126 10.969 44.0005 10.1728C44.933 9.34889 46.0196 8.71801 47.1974 8.31669C48.531 7.86432 49.9319 7.64285 51.3399 7.66181C52.7449 7.64546 54.1424 7.86823 55.4726 8.32057C56.6544 8.72037 57.7447 9.35134 58.6802 10.1767C59.5682 10.9729 60.2748 11.9505 60.7524 13.0433C61.2547 14.2048 61.5062 15.4592 61.4906 16.7246C61.5053 17.998 61.2539 19.2605 60.7524 20.4311C60.2753 21.534 59.5689 22.5228 58.6802 23.3316C57.7464 24.1666 56.6561 24.808 55.4726 25.2187C54.1447 25.6821 52.7462 25.9106 51.3399 25.894C49.9317 25.9106 48.5315 25.6811 47.2023 25.2158C46.0225 24.8027 44.936 24.1604 44.0054 23.3258C43.1151 22.518 42.4071 21.5299 41.9283 20.4272C41.4269 19.2566 41.1754 17.9942 41.1901 16.7207ZM44.7891 16.7207C44.7759 17.5715 44.9444 18.4154 45.2832 19.1959C45.6006 19.9136 46.0691 20.5544 46.6569 21.0744C47.2648 21.6054 47.9707 22.0125 48.7349 22.2727C49.5732 22.5591 50.4541 22.7009 51.3399 22.6922C52.2258 22.7006 53.1066 22.5584 53.9449 22.2717C54.7076 22.0127 55.4117 21.6058 56.0171 21.0744C56.6026 20.5523 57.0708 19.9121 57.3908 19.1959C57.7333 18.4164 57.9038 17.5721 57.8907 16.7207C57.9046 15.873 57.734 15.0324 57.3908 14.2572C57.0716 13.5513 56.6029 12.9233 56.0171 12.4165C55.4093 11.8994 54.705 11.5079 53.9449 11.2646C53.1038 10.9915 52.2242 10.8558 51.3399 10.8626C50.4559 10.8542 49.5762 10.9883 48.7349 11.2598C47.9734 11.5039 47.2674 11.8953 46.6569 12.4117C46.0688 12.9164 45.5997 13.545 45.2832 14.2523C44.9431 15.0301 44.7746 15.872 44.7891 16.7207ZM65.0653 12.2479H68.426V14.1777C69.1628 13.6281 69.9497 13.149 70.7762 12.7469C71.5648 12.3593 72.3901 12.0514 73.2398 11.8275L74.2279 14.9043C73.0505 15.0039 71.8977 15.2985 70.8169 15.7762C69.8724 16.198 69.0502 16.8523 68.427 17.6779V25.644H65.0653V12.2479ZM78.4953 10.4199C78.1885 10.4243 77.8832 10.3765 77.5924 10.2784C77.3413 10.1934 77.1083 10.0619 76.9056 9.89094C76.7215 9.73472 76.5725 9.54123 76.4687 9.32324C76.3668 9.10865 76.3145 8.87391 76.3156 8.63639C76.3136 8.39503 76.3659 8.15632 76.4687 7.93791C76.5716 7.721 76.7207 7.52923 76.9056 7.37602C77.1096 7.20863 77.3424 7.07963 77.5924 6.9953C77.8832 6.89728 78.1885 6.84945 78.4953 6.85386C78.8057 6.84896 79.1146 6.89678 79.4089 6.9953C79.659 7.07963 79.8917 7.20863 80.0957 7.37602C80.2806 7.52923 80.4297 7.721 80.5326 7.93791C80.6354 8.15632 80.6877 8.39503 80.6857 8.63639C80.6868 8.87391 80.6345 9.10865 80.5326 9.32324C80.4288 9.54123 80.2799 9.73472 80.0957 9.89094C79.893 10.0619 79.66 10.1934 79.4089 10.2784C79.1146 10.377 78.8057 10.4248 78.4953 10.4199ZM76.8184 12.2479H80.179V25.644H76.8184V12.2479ZM83.6753 18.946C83.6681 18.0136 83.8665 17.091 84.2566 16.2441C84.6495 15.3994 85.2182 14.6483 85.9248 14.0411C86.6974 13.3845 87.5872 12.88 88.5472 12.5541C89.66 12.1769 90.829 11.9927 92.0038 12.0096C93.1786 11.9931 94.3477 12.1775 95.4603 12.555C96.4204 12.881 97.3102 13.3855 98.0828 14.0421C98.7906 14.6495 99.3604 15.4013 99.7539 16.247C100.144 17.0939 100.342 18.0165 100.335 18.9489C100.342 19.8813 100.144 20.8038 99.7539 21.6508C99.3606 22.4952 98.7915 23.246 98.0847 23.8528C97.312 24.5087 96.4222 25.0126 95.4623 25.3379C94.3496 25.7154 93.1806 25.8999 92.0057 25.8833C90.8309 25.9002 89.6619 25.716 88.5492 25.3389C87.5883 25.0126 86.6978 24.5074 85.9248 23.8499C85.218 23.2431 84.6489 22.4923 84.2556 21.6479C83.8649 20.8011 83.6658 19.8785 83.6724 18.946H83.6753ZM87.2065 18.946C87.2041 19.4722 87.3145 19.9927 87.53 20.4728C87.7499 20.9591 88.0713 21.3928 88.4726 21.7447C88.916 22.1289 89.4286 22.4248 89.9829 22.6166C90.6344 22.8419 91.3203 22.9514 92.0096 22.9402C92.6988 22.9514 93.3847 22.8419 94.0363 22.6166C94.5906 22.4248 95.1032 22.1289 95.5466 21.7447C95.9461 21.3924 96.2659 20.9587 96.4843 20.4728C96.6999 19.9927 96.8102 19.4722 96.8079 18.946C96.8104 18.4167 96.7001 17.8929 96.4843 17.4095C96.2655 16.9211 95.944 16.4856 95.5417 16.1327C95.0984 15.7485 94.5858 15.4526 94.0314 15.2608C93.3799 15.0356 92.694 14.9261 92.0048 14.9372C91.3155 14.9261 90.6296 15.0356 89.9781 15.2608C89.4237 15.4526 88.9111 15.7485 88.4678 16.1327C88.0662 16.4858 87.7454 16.9213 87.5271 17.4095C87.3114 17.8929 87.201 18.4167 87.2036 18.946H87.2065ZM103.736 12.2479H107.097V13.3833C107.899 12.9146 108.76 12.5561 109.658 12.3177C110.439 12.1176 111.241 12.0148 112.048 12.0116C113.012 12.0024 113.971 12.154 114.886 12.4601C115.725 12.7404 116.495 13.195 117.145 13.7941C117.799 14.4112 118.309 15.1651 118.638 16.0019C119.012 16.9759 119.194 18.0132 119.173 19.0564V25.644H115.824V19.6047C115.834 18.9352 115.729 18.2688 115.512 17.6352C115.323 17.0875 115.017 16.5876 114.615 16.1705C114.215 15.7667 113.73 15.4566 113.196 15.2627C112.597 15.0474 111.964 14.9417 111.328 14.9508C110.952 14.952 110.578 14.99 110.21 15.0641C109.827 15.1401 109.451 15.2483 109.086 15.3877C108.715 15.5285 108.359 15.7033 108.02 15.9099C107.686 16.1131 107.374 16.3507 107.089 16.619V25.644H103.733L103.736 12.2479Z" fill="#EDE2E2"/>
<path d="M16.811 33.622C13.4861 33.622 10.2359 32.636 7.4713 30.7888C4.70675 28.9416 2.55205 26.3161 1.27967 23.2443C0.00728392 20.1725 -0.325629 16.7923 0.323026 13.5313C0.971681 10.2703 2.57277 7.27488 4.92383 4.92383C7.27488 2.57277 10.2703 0.971681 13.5313 0.323026C16.7923 -0.325629 20.1725 0.00728392 23.2443 1.27967C26.3161 2.55205 28.9416 4.70675 30.7888 7.4713C32.636 10.2359 33.622 13.4861 33.622 16.811C33.622 21.2695 31.8508 25.5455 28.6981 28.6981C25.5455 31.8508 21.2695 33.622 16.811 33.622ZM16.811 30.2594C20.3778 30.2594 23.7986 28.8424 26.3208 26.3203C28.8429 23.7981 30.2599 20.3774 30.2599 16.8105C30.2599 13.2436 28.8429 9.82286 26.3208 7.3007C23.7986 4.77855 20.3778 3.36162 16.811 3.36162C13.2441 3.36162 9.82334 4.77855 7.30119 7.3007C4.77904 9.82286 3.36211 13.2436 3.36211 16.8105C3.36211 20.3774 4.77904 23.7981 7.30119 26.3203C9.82334 28.8424 13.2441 30.2594 16.811 30.2594ZM20.1736 13.4484H15.1302C14.6843 13.4484 14.2566 13.2713 13.9413 12.956C13.626 12.6407 13.4489 12.213 13.4489 11.7671C13.4489 11.3212 13.626 10.8936 13.9413 10.5783C14.2566 10.263 14.6843 10.0858 15.1302 10.0858H21.8544C22.3001 10.0858 22.7277 10.2629 23.0429 10.5781C23.3581 10.8933 23.5352 11.3208 23.5352 11.7666V18.4908C23.5352 18.9367 23.358 19.3644 23.0427 19.6797C22.7274 19.995 22.2998 20.1721 21.8539 20.1721C21.408 20.1721 20.9803 19.995 20.665 19.6797C20.3497 19.3644 20.1726 18.9367 20.1726 18.4908L20.1736 13.4484ZM15.1302 18.4918H10.0868C9.64088 18.4918 9.21324 18.3147 8.89793 17.9993C8.58263 17.684 8.40549 17.2564 8.40549 16.8105C8.40549 16.3646 8.58263 15.9369 8.89793 15.6216C9.21324 15.3063 9.64088 15.1292 10.0868 15.1292H16.811C17.2568 15.1292 17.6843 15.3063 17.9995 15.6215C18.3147 15.9367 18.4918 16.3642 18.4918 16.81V23.5342C18.4918 23.9801 18.3147 24.4078 17.9993 24.7231C17.684 25.0384 17.2564 25.2155 16.8105 25.2155C16.3646 25.2155 15.9369 25.0384 15.6216 24.7231C15.3063 24.4078 15.1292 23.9801 15.1292 23.5342L15.1302 18.4918Z" fill="#EDE2E2"/>
</svg>
