<svg width="109" height="23" viewBox="0 0 109 23" fill="none" xmlns="http://www.w3.org/2000/svg">
<path d="M67.5136 22.5905C65.5128 22.6507 63.5591 21.9754 62.0219 20.6933C61.2723 20.0195 60.6839 19.1862 60.3 18.2542C59.9162 17.3223 59.7467 16.3156 59.8043 15.3093V0.966296C59.792 0.872948 59.8013 0.778053 59.8314 0.688832C59.8615 0.599611 59.9116 0.518215 59.978 0.451435C60.0444 0.384654 60.1252 0.333821 60.2142 0.303186C60.3033 0.272552 60.3982 0.262338 60.4916 0.274138H64.1124C64.2058 0.262338 64.3007 0.272552 64.3897 0.303186C64.4788 0.333821 64.5595 0.384654 64.6259 0.451435C64.6923 0.518215 64.7425 0.599611 64.7726 0.688832C64.8027 0.778053 64.8119 0.872948 64.7995 0.966296V13.8899C64.7414 15.0606 65.1177 16.212 65.8561 17.1223C66.2282 17.5287 66.6858 17.8473 67.1958 18.0559C67.7059 18.2645 68.2557 18.3576 68.806 18.3284C69.3785 18.3532 69.9499 18.2585 70.4841 18.0509C71.0182 17.8432 71.5034 17.5273 71.9088 17.1223C72.306 16.6868 72.6134 16.1765 72.8132 15.6218C73.013 15.0672 73.1012 14.4788 73.073 13.8899V0.966296C73.0607 0.872948 73.0698 0.778053 73.0999 0.688832C73.13 0.599611 73.1803 0.518215 73.2467 0.451435C73.3131 0.384654 73.3939 0.333821 73.483 0.303186C73.572 0.272552 73.6669 0.262338 73.7603 0.274138H77.3369C77.4306 0.26182 77.5258 0.271782 77.6152 0.302185C77.7047 0.332588 77.7859 0.382586 77.8526 0.449431C77.9194 0.516276 77.9699 0.598348 78.0001 0.68783C78.0304 0.777312 78.0396 0.872658 78.0272 0.966296V21.5998C78.0389 21.6932 78.0292 21.7883 77.9986 21.8773C77.9681 21.9662 77.9175 22.0473 77.8509 22.1137C77.7842 22.1801 77.7032 22.2298 77.6141 22.2599C77.525 22.2901 77.4302 22.2992 77.3369 22.287H73.7603C73.667 22.2999 73.572 22.2919 73.4827 22.2619C73.3934 22.232 73.3123 22.1813 73.2457 22.1147C73.1791 22.0481 73.1289 21.9676 73.0989 21.8783C73.069 21.789 73.0601 21.6931 73.073 21.5998V20.48C73.073 20.3671 73.0361 20.2923 72.9653 20.2636C72.9514 20.2577 72.9364 20.2548 72.9213 20.2546C72.8659 20.2546 72.8187 20.3005 72.7715 20.3938C72.1296 21.1476 71.3189 21.7391 70.4053 22.1207C69.4917 22.5023 68.5009 22.6637 67.5136 22.5905ZM91.5944 22.5494C89.9718 22.5802 88.3576 22.309 86.834 21.7501C85.6035 21.31 84.511 20.5528 83.6676 19.5544C82.9439 18.674 82.548 17.5689 82.5475 16.4292V16.2128C82.5357 16.1195 82.5456 16.0253 82.5762 15.9364C82.6068 15.8474 82.6573 15.7663 82.7239 15.7C82.7906 15.6336 82.8716 15.5839 82.9607 15.5537C83.0498 15.5235 83.1446 15.5135 83.2379 15.5257H86.6843C87.1489 15.5257 87.3746 15.6282 87.3746 15.8282V16.1267C87.3955 16.5141 87.5153 16.8905 87.7225 17.2185C87.9297 17.5465 88.2175 17.8154 88.5583 18.0008C89.4536 18.5614 90.4968 18.8401 91.5523 18.8001C92.5359 18.8398 93.5094 18.59 94.3525 18.0819C94.6719 17.9035 94.9393 17.6443 95.1278 17.3307C95.3164 17.0171 95.4196 16.6598 95.4274 16.294C95.4368 15.9881 95.359 15.6867 95.2029 15.4235C95.0469 15.1603 94.8191 14.946 94.5463 14.8075C93.6318 14.356 92.6718 14.0039 91.6825 13.7557L90.0414 13.2368C88.7714 12.8786 87.5328 12.4168 86.3376 11.8575C85.3533 11.3853 84.4852 10.7029 83.7948 9.85718C83.0801 8.92664 82.7142 7.77413 82.7609 6.60173C82.7336 5.67088 82.9331 4.74784 83.3421 3.91123C83.7511 3.07461 84.3575 2.34989 85.1088 1.79969C86.9295 0.533491 89.1177 -0.0952505 91.3328 0.0116986C92.9122 -0.0210024 94.482 0.265042 95.9486 0.852105C97.1655 1.33551 98.2288 2.13896 99.0257 3.178C99.752 4.15582 100.138 5.34569 100.123 6.56366C100.123 6.63578 100.105 6.70627 100.071 6.77001C100.037 6.83375 99.9887 6.88828 99.9293 6.92928C99.7854 7.0335 99.6105 7.08674 99.4329 7.07953H96.1178C95.6593 7.07953 95.4274 6.99339 95.4274 6.8221V6.56366C95.4195 6.18364 95.3145 5.81186 95.1224 5.48386C94.9303 5.15586 94.6575 4.88239 94.33 4.68953C93.4302 4.14367 92.3869 3.88094 91.336 3.93627C90.3846 3.89688 89.4399 4.11223 88.5993 4.55931C88.2799 4.7245 88.0125 4.97477 87.8266 5.28252C87.6407 5.59027 87.5435 5.94269 87.5459 6.30223C87.542 6.63206 87.6332 6.95653 87.8088 7.23579C87.9844 7.51505 88.2367 7.73741 88.5356 7.87686C89.5989 8.38322 90.7112 8.78013 91.8549 9.06084L92.8447 9.31828C94.1647 9.69721 95.46 10.1574 96.723 10.6966C97.7393 11.1459 98.6377 11.8251 99.3477 12.6799C100.092 13.6216 100.475 14.798 100.427 15.9975C100.457 16.9356 100.253 17.8672 99.8317 18.706C99.4105 19.5448 98.7861 20.2648 98.0154 20.8005C96.1134 22.0459 93.8663 22.6581 91.5954 22.5494H91.5944ZM8.8385 22.5494C8.73593 22.5494 8.61489 22.5494 8.44359 22.5494V18.7981C8.56976 18.7981 8.68463 18.8062 8.79643 18.8062C9.77997 18.8458 10.7535 18.596 11.5966 18.088C11.9158 17.9091 12.1829 17.6502 12.3714 17.3367C12.5599 17.0232 12.6634 16.6657 12.6717 16.3C12.6811 15.9941 12.6032 15.6927 12.4472 15.4295C12.2911 15.1663 12.0634 14.953 11.7906 14.8145C10.8733 14.3627 9.91051 14.0095 8.91851 13.7617L7.28352 13.2428C6.01237 12.8851 4.77257 12.4243 3.57657 11.8645C2.59346 11.3923 1.72667 10.7089 1.03795 9.86319C0.323241 8.93265 -0.0426746 7.78115 0.00396627 6.60874C-0.0232904 5.6779 0.1763 4.75385 0.585314 3.91724C0.994329 3.08062 1.60057 2.3559 2.3519 1.8057C4.17229 0.538937 6.36077 -0.0898612 8.57594 0.0177086C10.1535 -0.0137429 11.7214 0.272269 13.1865 0.858115C14.4029 1.3426 15.4659 2.14685 16.2637 3.18501C16.99 4.16283 17.3755 5.3517 17.3611 6.56967C17.3606 6.64179 17.3428 6.71228 17.3091 6.77602C17.2753 6.83976 17.2266 6.89429 17.1673 6.93529C17.0229 7.03865 16.8483 7.09181 16.6709 7.08554H13.3558C12.8973 7.08554 12.6654 6.9994 12.6654 6.82811V6.56967C12.6574 6.18965 12.5525 5.81787 12.3604 5.48987C12.1683 5.16187 11.8955 4.8884 11.5679 4.69554C10.6681 4.14968 9.62491 3.88695 8.57394 3.94228C7.62253 3.90209 6.6776 4.11749 5.83723 4.56532C5.51731 4.73009 5.24929 4.97975 5.06281 5.28753C4.87633 5.59531 4.77878 5.94938 4.78084 6.30924C4.77708 6.63944 4.86876 6.96348 5.0449 7.2428C5.22105 7.52212 5.47404 7.74397 5.77362 7.88287C6.83543 8.38939 7.9463 8.78632 9.0888 9.06685L10.0817 9.32429C11.4008 9.70305 12.6949 10.1632 13.9568 10.7026C14.9745 11.1511 15.8741 11.8304 16.5847 12.6859C17.3291 13.6276 17.7119 14.804 17.6638 16.0035C17.6944 16.942 17.4894 17.8741 17.0674 18.713C16.6454 19.5519 16.02 20.2716 15.2482 20.8065C13.3489 22.0488 11.1054 22.659 8.8385 22.5494ZM53.73 22.287H50.1092C50.0159 22.2999 49.921 22.2919 49.8317 22.2619C49.7425 22.232 49.6613 22.1813 49.5947 22.1147C49.5281 22.0481 49.4778 21.9676 49.4478 21.8783C49.4179 21.789 49.4091 21.6931 49.4221 21.5998V0.966296C49.4097 0.872948 49.4189 0.778053 49.449 0.688832C49.4791 0.599611 49.5293 0.518215 49.5957 0.451435C49.6621 0.384654 49.7428 0.333821 49.8319 0.303186C49.9209 0.272552 50.0158 0.262338 50.1092 0.274138H53.73C53.8234 0.262338 53.9183 0.272552 54.0074 0.303186C54.0964 0.333821 54.1772 0.384654 54.2436 0.451435C54.31 0.518215 54.3601 0.599611 54.3902 0.688832C54.4203 0.778053 54.4296 0.872948 54.4173 0.966296V21.5998C54.4311 21.6935 54.4229 21.7894 54.3934 21.8793C54.3638 21.9692 54.3137 22.0515 54.247 22.1187C54.1803 22.1859 54.0988 22.2367 54.0091 22.2669C53.9194 22.2972 53.8238 22.3061 53.73 22.293V22.287ZM37.1873 22.287H33.5665C33.4732 22.2999 33.3782 22.2919 33.2889 22.2619C33.1996 22.232 33.1185 22.1813 33.0519 22.1147C32.9853 22.0481 32.9351 21.9676 32.9052 21.8783C32.8752 21.789 32.8663 21.6931 32.8792 21.5998V0.966296C32.8669 0.872948 32.8762 0.778053 32.9063 0.688832C32.9364 0.599611 32.9865 0.518215 33.0529 0.451435C33.1193 0.384654 33.2001 0.333821 33.2892 0.303186C33.3782 0.272552 33.4731 0.262338 33.5665 0.274138H37.1873C37.2807 0.262338 37.3756 0.272552 37.4647 0.303186C37.5537 0.333821 37.6344 0.384654 37.7008 0.451435C37.7672 0.518215 37.8175 0.599611 37.8476 0.688832C37.8777 0.778053 37.8868 0.872948 37.8745 0.966296V2.64611C37.8745 2.76099 37.9022 2.83074 37.9606 2.85946C37.9713 2.86534 37.9834 2.86829 37.9956 2.86848C38.0438 2.86848 38.0909 2.82252 38.136 2.73225C38.5369 2.08336 39.0636 1.52165 39.6851 1.07949C40.3066 0.637324 41.0104 0.323899 41.7548 0.157943H44.4288C44.7683 0.235014 45.099 0.345917 45.4156 0.4905C45.5755 0.560006 45.7039 0.687239 45.7757 0.846095C45.8475 1.00495 45.8578 1.18497 45.8044 1.35094L45.114 4.92592C45.0853 5.15774 45.0053 5.30223 44.8751 5.35865C44.7991 5.39002 44.7172 5.4047 44.635 5.40172C44.521 5.40001 44.4073 5.38557 44.2965 5.35865C43.8479 5.23033 43.3823 5.17161 42.9159 5.18436C42.6417 5.18095 42.3675 5.19565 42.0953 5.22843C40.9655 5.25573 39.8879 5.70965 39.0787 6.49856C38.6777 6.90152 38.3636 7.3826 38.1561 7.91192C37.9486 8.44125 37.8521 9.00753 37.8725 9.57571V21.5968C37.8868 21.6905 37.879 21.7861 37.8498 21.8763C37.8206 21.9665 37.7707 22.0492 37.7042 22.1167C37.6377 22.1842 37.5563 22.2354 37.4665 22.2659C37.3768 22.2965 37.2812 22.3059 37.1873 22.293V22.287ZM26.5465 22.287H22.9257C22.8324 22.2999 22.7374 22.2919 22.6481 22.2619C22.5588 22.232 22.4777 22.1813 22.4111 22.1147C22.3445 22.0481 22.2943 21.9676 22.2643 21.8783C22.2344 21.789 22.2255 21.6931 22.2384 21.5998V0.966296C22.2261 0.872948 22.2354 0.778053 22.2655 0.688832C22.2956 0.599611 22.3457 0.518215 22.4121 0.451435C22.4785 0.384654 22.5593 0.333821 22.6484 0.303186C22.7374 0.272552 22.8323 0.262338 22.9257 0.274138H26.5465C26.6399 0.262338 26.7348 0.272552 26.8239 0.303186C26.9129 0.333821 26.9937 0.384654 27.0601 0.451435C27.1265 0.518215 27.1766 0.599611 27.2067 0.688832C27.2368 0.778053 27.246 0.872948 27.2337 0.966296V21.5998C27.2475 21.6935 27.2393 21.7894 27.2098 21.8793C27.1802 21.9692 27.1301 22.0515 27.0634 22.1187C26.9967 22.1859 26.9152 22.2367 26.8255 22.2669C26.7358 22.2972 26.6403 22.3061 26.5465 22.293V22.287Z" fill="#EDE2E2"/>
<path d="M105.694 22.332C105.312 22.3458 104.93 22.2823 104.572 22.1454C104.214 22.0084 103.887 21.8009 103.611 21.5351C103.345 21.2777 103.134 20.9678 102.994 20.6248C102.854 20.2819 102.786 19.9135 102.796 19.5431C102.795 19.1751 102.874 18.8112 103.027 18.4765C103.18 18.1418 103.404 17.8443 103.683 17.6045C104.222 17.0823 104.943 16.7899 105.693 16.7891C106.461 16.7869 107.2 17.0787 107.758 17.6045C108.042 17.8416 108.27 18.1381 108.427 18.4731C108.583 18.8081 108.664 19.1734 108.664 19.5431C108.669 19.9136 108.596 20.281 108.449 20.6212C108.302 20.9615 108.085 21.2669 107.813 21.5176C107.531 21.7867 107.199 21.9973 106.835 22.1371C106.472 22.2769 106.084 22.3431 105.694 22.332Z" fill="#EDE2E2"/>
</svg>
