<svg width="104" height="31" viewBox="0 0 104 31" fill="none" xmlns="http://www.w3.org/2000/svg">
<path d="M1.23479 9.89072H11.5217L8.11885 24.6052H11.8088L10.574 29.8965H0.287098L3.68997 15.182H0L1.23479 9.89072ZM5.62406 3.44083C5.62235 2.98034 5.71261 2.52413 5.88956 2.0989C6.05673 1.69085 6.30329 1.31998 6.61496 1.00774C6.92892 0.695829 7.2998 0.446864 7.70755 0.274304C8.13868 0.0918638 8.60282 7.56023e-05 9.07104 0.0046605C9.52338 0.00188785 9.97129 0.0937396 10.3859 0.274304C10.7888 0.448926 11.1552 0.697738 11.4659 1.00774C11.7782 1.32129 12.0275 1.69168 12.2003 2.0989C12.3817 2.52294 12.4736 2.97975 12.4703 3.44083C12.4736 3.90191 12.3817 4.35872 12.2003 4.78276C12.0275 5.18998 11.7782 5.56037 11.4659 5.87392C11.1552 6.18392 10.7888 6.43273 10.3859 6.60735C9.97129 6.78792 9.52338 6.87977 9.07104 6.877C8.60282 6.88161 8.13867 6.78982 7.70755 6.60735C7.2998 6.43479 6.92892 6.18583 6.61496 5.87392C6.30339 5.56195 6.05684 5.19138 5.88956 4.78366C5.71249 4.35815 5.62223 3.90162 5.62406 3.44083ZM14.2478 21.4764C14.2237 19.7549 14.5628 18.0475 15.2432 16.4656C15.8701 15.019 16.7808 13.7125 17.9216 12.6231C19.0486 11.5577 20.3725 10.7216 21.8195 10.1613C23.3069 9.57976 24.8913 9.28485 26.4886 9.29211C27.706 9.283 28.9127 9.51932 30.0364 9.9869C31.1074 10.4298 32.0823 11.0756 32.9074 11.8888C33.7248 12.7012 34.3751 13.6654 34.8217 14.7272C35.2899 15.8363 35.5266 17.0291 35.5174 18.2326C35.5359 19.9012 35.2169 21.5563 34.5796 23.0988C33.9835 24.5358 33.1098 25.8415 32.0083 26.9412C30.9007 28.0343 29.5847 28.8944 28.1383 29.4705C26.6049 30.0841 24.9662 30.3925 23.3143 30.3783C22.0768 30.3911 20.8496 30.1513 19.7081 29.6736C18.6378 29.2249 17.6634 28.576 16.8371 27.7619C16.023 26.9533 15.3765 25.9924 14.9345 24.9342C14.4742 23.84 14.2406 22.6641 14.2478 21.4773V21.4764ZM20.5478 20.7619C20.5415 21.2905 20.6265 21.8162 20.7989 22.3159C20.9531 22.7633 21.1928 23.1766 21.5045 23.5329C21.8032 23.8714 22.1716 24.1415 22.5845 24.3248C23.0139 24.5138 23.4787 24.6094 23.9479 24.6052C24.6228 24.6043 25.2894 24.4562 25.9009 24.1711C26.5365 23.8814 27.1124 23.476 27.5992 22.9757C28.1033 22.455 28.5064 21.8455 28.7881 21.178C29.0878 20.473 29.2391 19.714 29.2327 18.9481C29.245 18.3664 29.1498 17.7875 28.9519 17.2403C28.7868 16.7925 28.5337 16.3821 28.2076 16.0332C27.9051 15.7156 27.5364 15.4683 27.1276 15.3088C26.7084 15.1465 26.2623 15.0644 25.8127 15.067C25.1013 15.0606 24.3975 15.2142 23.7535 15.5164C23.1235 15.8133 22.558 16.2311 22.0895 16.746C21.6099 17.2756 21.23 17.8873 20.9681 18.5517C20.6878 19.255 20.5463 20.0058 20.5514 20.7628L20.5478 20.7619ZM39.129 9.88623H49.299L48.9894 11.5275V11.5086C49.5537 11.081 50.1563 10.7061 50.7894 10.3887C51.4024 10.0852 52.0451 9.84542 52.7073 9.67321C53.3699 9.49875 54.0524 9.41113 54.7376 9.41255C55.746 9.39035 56.7477 9.58117 57.677 9.97252C58.4789 10.3172 59.1733 10.8706 59.6876 11.5751C60.215 12.3352 60.5438 13.2148 60.6443 14.134C60.7707 15.2817 60.6886 16.4427 60.4022 17.5612L58.7588 24.6052H62.4092L61.1951 29.8965H50.928L53.4219 19.1404C53.534 18.7025 53.5699 18.2486 53.5281 17.7985C53.4952 17.4339 53.3899 17.0794 53.2185 16.7559C53.0671 16.4762 52.8392 16.2452 52.5615 16.0898C52.268 15.9313 51.9384 15.8514 51.6048 15.858C50.7452 15.917 49.9111 16.1748 49.1685 16.6112C48.6179 16.8992 48.0939 17.2351 47.6025 17.6151L44.7594 29.8965H37.9726L41.3754 15.182H37.8952L39.129 9.88623ZM66.605 9.88623H76.8991L73.4926 24.6052H77.1826L75.9487 29.8965H65.6618L69.0692 15.182H65.3792L66.605 9.88623ZM70.9942 3.43634C70.9911 2.97615 71.0798 2.51995 71.2552 2.09441C71.4224 1.68636 71.669 1.31548 71.9806 1.00324C72.2946 0.691334 72.6655 0.442369 73.0732 0.269809C73.5044 0.0873441 73.9685 -0.00444517 74.4367 0.000165467C74.8891 -0.00260718 75.337 0.0892446 75.7516 0.269809C76.1545 0.444431 76.5209 0.693243 76.8316 1.00324C77.1439 1.31679 77.3932 1.68719 77.566 2.09441C77.7473 2.51844 77.8393 2.97525 77.836 3.43634C77.8393 3.89742 77.7473 4.35423 77.566 4.77827C77.3932 5.18548 77.1439 5.55587 76.8316 5.86943C76.5209 6.17943 76.1545 6.42824 75.7516 6.60286C75.337 6.78342 74.8891 6.87528 74.4367 6.8725C73.9685 6.87711 73.5044 6.78532 73.0732 6.60286C72.6655 6.4303 72.2946 6.18134 71.9806 5.86943C71.669 5.55719 71.4224 5.18631 71.2552 4.77827C71.0819 4.3538 70.9948 3.8992 70.9987 3.44083L70.9942 3.43634ZM92.8479 28.3686C92.3072 28.9152 91.6633 29.3494 90.9534 29.6458C90.0178 30.0382 89.0097 30.2291 87.9951 30.2057C86.945 30.2047 85.9036 30.015 84.9207 29.6458C83.9232 29.2776 83.0116 28.7092 82.2424 27.9758C81.4332 27.1934 80.7888 26.2574 80.347 25.2227C79.8432 24.0255 79.5961 22.7362 79.6216 21.4378C79.6127 20.2652 79.7755 19.0975 80.1049 17.972C80.4118 16.9308 80.8606 15.9367 81.4387 15.0176C81.9977 14.1326 82.6778 13.33 83.4592 12.633C84.2325 11.9424 85.0901 11.352 86.0115 10.8758C86.9379 10.3977 87.918 10.0314 88.9311 9.78466C89.9531 9.53394 91.0017 9.40749 92.0541 9.40806C92.5627 9.4013 93.0708 9.4401 93.5724 9.52401C93.9924 9.6013 94.4724 9.71725 95.0124 9.87185C95.6951 10.0996 96.3353 10.4388 96.9069 10.8758L97.1391 9.88713H103.709L100.289 24.6016H103.989L102.748 29.8965H92.4996L92.8479 28.3686ZM93.5634 22.7105L94.4139 21.6481L95.3805 17.4767C95.2164 17.1671 95.0151 16.8785 94.7811 16.6175C94.5178 16.326 94.2071 16.0811 93.8622 15.893C93.4852 15.6833 93.0821 15.5244 92.6634 15.4202C92.237 15.3114 91.7986 15.2561 91.3584 15.2557C90.6727 15.2536 89.9942 15.395 89.3667 15.671C88.7502 15.9375 88.1894 16.3174 87.7134 16.7909C87.2352 17.2721 86.8514 17.8386 86.5821 18.4609C86.2967 19.1126 86.1516 19.8169 86.1564 20.5282C86.1453 21.0813 86.2438 21.6311 86.4462 22.1461C86.623 22.5853 86.8936 22.9807 87.2391 23.3046C87.574 23.6133 87.9689 23.8498 88.3992 23.9994C88.8529 24.1565 89.3302 24.2349 89.8104 24.2313C90.2505 24.2293 90.6887 24.1741 91.1154 24.0668C91.5641 23.9558 91.9965 23.7869 92.4015 23.5644C92.8251 23.3337 93.2158 23.0474 93.5634 22.7132V22.7105Z" fill="#EDE2E2"/>
</svg>
