<svg width="124" height="24" viewBox="0 0 124 24" fill="none" xmlns="http://www.w3.org/2000/svg">
<path d="M36.5796 23.8589C35.8128 23.8935 35.0481 23.7553 34.3419 23.4546C33.6357 23.1539 33.006 22.6984 32.4995 22.1217C31.4038 20.6884 30.8672 18.9053 30.9899 17.1053C31.0009 15.3876 31.2765 13.6819 31.807 12.0481C32.293 10.4312 33.1618 8.95531 34.3398 7.74575C34.8965 7.17715 35.5645 6.72943 36.302 6.43052C37.0394 6.13161 37.8306 5.98794 38.6261 6.00849C39.6232 5.97605 40.6137 6.18181 41.5154 6.60869C42.3069 7.02004 42.978 7.62974 43.4632 8.37817H43.6575L44.6636 6.39717H48.4301L47.6786 10.5535L47.1589 13.3784C46.4882 17.1006 46.1528 19.092 46.1528 19.3526C46.1464 19.4739 46.168 19.5951 46.2158 19.7068C46.2636 19.8185 46.3365 19.9177 46.4287 19.9968C46.6164 20.1497 46.8525 20.2305 47.0944 20.2244H48.0361L47.4842 23.3382C46.6457 23.7054 45.7365 23.8829 44.8214 23.8579C44.0247 23.9065 43.2366 23.6706 42.5978 23.1922C42.3272 22.9476 42.1177 22.6431 41.9861 22.303C41.8544 21.9629 41.8043 21.5967 41.8397 21.2337H41.6454C41.0665 22.0545 40.2977 22.7231 39.4045 23.1825C38.5309 23.6317 37.5619 23.8638 36.5796 23.8589ZM38.2975 19.9936C38.7782 20.0047 39.255 19.9058 39.6915 19.7044C40.1281 19.5031 40.5129 19.2046 40.8165 18.8318C41.4942 18.0189 41.9824 17.0653 42.2456 16.0402C42.5241 15.0553 42.6714 14.0379 42.6836 13.0144C42.6836 10.8284 41.7746 9.73534 39.9564 9.73534C39.4615 9.71725 38.9692 9.81455 38.5185 10.0195C38.0677 10.2245 37.6708 10.5316 37.3591 10.9164C36.6942 11.7383 36.2276 12.7024 35.9955 13.7338C35.7436 14.7528 35.6128 15.798 35.6057 16.8476C35.6057 18.9492 36.5041 20 38.3008 20L38.2975 19.9936ZM54.1777 0H58.6261L54.502 23.4745H50.0504L54.1777 0ZM63.2033 0H67.6517L63.5287 23.4745H59.0803L63.2033 0ZM72.1323 0H76.5807L75.8291 4.18747H71.3861L72.1323 0ZM71.1262 6.39609H75.5746L72.5543 23.4745H68.1059L71.1262 6.39609ZM84.4091 23.8589C82.503 23.9662 80.6043 23.5448 78.9225 22.6413C78.3269 22.3148 77.8312 21.8327 77.4882 21.2465C77.1451 20.6603 76.9677 19.992 76.9747 19.3128C76.967 18.88 77.0443 18.4499 77.2024 18.0469H81.5208C81.4552 18.201 81.422 18.3669 81.4231 18.5344C81.4122 18.8346 81.4914 19.1312 81.6507 19.3859C81.8099 19.6406 82.0418 19.8418 82.3165 19.9635C83.0095 20.2888 83.7695 20.4462 84.5347 20.4231C85.376 20.4423 86.2135 20.3047 87.0043 20.0172C87.3018 19.9386 87.5651 19.7638 87.7531 19.5201C87.941 19.2764 88.0432 18.9775 88.0436 18.6697C88.0425 18.4032 87.9595 18.1434 87.8059 17.9256C87.6522 17.7079 87.4354 17.5425 87.1847 17.4521C86.2957 17.0727 85.3785 16.7632 84.4413 16.5266C83.428 16.2846 82.4305 15.9809 81.4543 15.6171C80.6877 15.3225 79.999 14.856 79.4411 14.2535C78.8621 13.6035 78.5594 12.7534 78.5971 11.8838C78.5603 11.0301 78.7441 10.1813 79.1308 9.41921C79.5174 8.65716 80.0939 8.0076 80.8047 7.53315C82.4849 6.45701 84.4556 5.92395 86.4492 6.00634C88.1987 5.93457 89.9387 6.29718 91.5139 7.0618C92.0839 7.30703 92.5709 7.71168 92.9165 8.22712C93.262 8.74255 93.4513 9.34681 93.4616 9.96726C93.4601 10.4525 93.3833 10.9346 93.2339 11.3964H88.9187L88.9509 11.0743C88.9608 10.8262 88.9005 10.5804 88.7771 10.3651C88.6536 10.1497 88.472 9.97352 88.253 9.85667C87.6549 9.55599 86.9889 9.41612 86.3203 9.4508C85.5369 9.41896 84.7559 9.55743 84.0312 9.85667C83.7878 9.9386 83.5753 10.0928 83.4218 10.2986C83.2683 10.5044 83.1813 10.7522 83.1722 11.0088C83.1829 11.257 83.2696 11.496 83.4205 11.6934C83.5715 11.8908 83.7794 12.0371 84.0161 12.1125C84.8541 12.4574 85.7241 12.7185 86.6134 12.892C87.6538 13.1168 88.6785 13.4087 89.681 13.766C90.4761 14.0582 91.1927 14.5304 91.7748 15.1458C92.3834 15.8263 92.6987 16.7196 92.652 17.6314C92.724 18.5608 92.545 19.4924 92.1338 20.3289C91.7226 21.1654 91.0943 21.8762 90.3145 22.3869C88.5263 23.4296 86.4776 23.9403 84.4091 23.8589ZM99.994 23.8589C98.8615 23.9692 97.7309 23.6311 96.8448 22.9173C96.528 22.5928 96.2806 22.2071 96.1177 21.7838C95.9549 21.3605 95.8801 20.9085 95.8978 20.4553C95.9816 19.4524 96.1225 18.4551 96.3198 17.4682L97.6158 10.0328H95.5757L96.2199 6.39609H98.2654L99.921 1.59124H103.59L102.714 6.39609H105.669L105.024 10.0328H102.068L100.672 17.9535C100.579 18.3929 100.514 18.8375 100.477 19.2849C100.47 19.4173 100.494 19.5497 100.547 19.671C100.601 19.7923 100.682 19.8992 100.785 19.9828C101.047 20.162 101.362 20.2478 101.679 20.2266H103.237L102.685 23.3403C102.254 23.4874 101.815 23.6068 101.369 23.6979C100.916 23.7993 100.454 23.8533 99.9897 23.8589H99.994ZM114.118 23.8589C112.748 23.8829 111.394 23.5707 110.173 22.9495C109.041 22.3708 108.087 21.4981 107.409 20.4231C106.722 19.3225 106.356 18.0517 106.354 16.7542C106.344 15.8076 106.42 14.8621 106.581 13.9292C106.856 11.6804 107.913 9.59998 109.568 8.05283C111.397 6.59824 113.698 5.86986 116.03 6.00741C117.415 5.98255 118.785 6.29465 120.023 6.91684C121.16 7.49441 122.12 8.36982 122.799 9.44973C123.486 10.5502 123.851 11.8211 123.854 13.1186C123.863 14.0652 123.787 15.0107 123.626 15.9435C123.351 18.1952 122.287 20.2767 120.623 21.8189C118.776 23.2732 116.46 23.9991 114.113 23.8589H114.118ZM114.44 20.2223C115.067 20.2605 115.696 20.1678 116.286 19.9498C116.875 19.7319 117.413 19.3935 117.865 18.9564C118.784 17.8566 119.324 16.4905 119.407 15.0599C119.496 14.4361 119.539 13.8067 119.537 13.1766C119.553 12.6967 119.47 12.2187 119.294 11.772C119.118 11.3253 118.852 10.9193 118.513 10.5793C117.758 9.91696 116.773 9.57867 115.77 9.63763C115.143 9.59935 114.514 9.69213 113.924 9.91008C113.335 10.128 112.797 10.4664 112.345 10.9035C111.426 12.0033 110.886 13.3694 110.803 14.8C110.714 15.4238 110.67 16.0532 110.673 16.6833C110.657 17.1632 110.74 17.6412 110.916 18.0879C111.092 18.5346 111.357 18.9406 111.696 19.2806C112.45 19.9446 113.436 20.2848 114.439 20.2276L114.44 20.2223Z" fill="#EDE2E2"/>
<path d="M17.4874 23.8725C15.572 23.9438 13.6674 23.5539 11.9342 22.7354C10.5227 22.0084 9.4206 20.797 8.83008 19.3232L13.3257 17.3905C13.9592 19.0354 15.4151 19.8697 17.6549 19.8697C19.1498 19.9196 20.6214 19.4895 21.8542 18.6424C22.9841 17.8286 23.7485 16.6029 23.9823 15.2302H28.6583C28.4017 16.9824 27.6856 18.6354 26.5828 20.0211C25.5303 21.3003 24.173 22.2942 22.6358 22.9115C20.9979 23.5613 19.2495 23.8877 17.4874 23.8725ZM29.6601 9.4869H24.8284C24.8912 9.16643 24.9232 8.84068 24.9239 8.51411C24.9558 7.99389 24.865 7.47345 24.6589 6.99472C24.4528 6.51599 24.1372 6.09234 23.7375 5.7579C22.8223 5.09211 21.7068 4.75979 20.5765 4.81625C18.9295 4.75592 17.32 5.31657 16.0669 6.38709L11.772 4.40932C12.1082 4.04578 12.4668 3.70367 12.8458 3.385C13.8816 2.53997 15.0656 1.89514 16.3375 1.48346C17.7586 1.02699 19.2439 0.802569 20.7365 0.818829C23.0621 0.710787 25.3644 1.32311 27.329 2.5722C28.146 3.14534 28.804 3.91674 29.241 4.81394C29.6781 5.71114 29.8799 6.7047 29.8276 7.70131C29.8171 8.29954 29.7611 8.8961 29.6601 9.48582V9.4869Z" fill="#EDE2E2"/>
<path d="M0.721534 16.6018L15.0792 11.4791L2.56187 6.35645L3.28341 2.24414L19.1561 9.31453L18.3261 13.896L0 21.004L0.721534 16.6018Z" fill="#EDE2E2"/>
<path d="M0.721534 16.5895L15.0792 11.4668L18.4947 12.868L18.3261 13.8837L0 20.9906L0.721534 16.5895Z" fill="#EDE2E2"/>
</svg>
