<svg width="127" height="40" viewBox="0 0 127 40" fill="none" xmlns="http://www.w3.org/2000/svg">
<path d="M26.0557 0.116841C25.5883 0 25.0041 0 24.5367 0H15.1894C14.722 0 14.1378 0 13.6705 0.116841C5.95892 0.81789 0 7.36101 0 15.1894V24.5367C0 32.5988 6.30944 39.2587 14.3715 39.7261H15.1894H24.5367H25.3546C33.4167 39.2587 39.7261 32.5988 39.7261 24.5367V15.1894C39.7261 7.36101 33.7672 0.81789 26.0557 0.116841ZM35.7535 24.5367C35.7535 30.7293 30.7293 35.7535 24.5367 35.7535H15.1894C8.99679 35.7535 3.97261 30.7293 3.97261 24.5367V15.1894C3.97261 8.99679 8.99679 3.97261 15.1894 3.97261H24.5367C30.7293 3.97261 35.7535 8.99679 35.7535 15.1894V24.5367Z" fill="#EDE2E2"/>
<path d="M28.6228 21.8502C28.2723 21.6165 27.8049 21.3828 27.4544 21.3828C26.7533 21.3828 26.1691 21.7333 25.7018 22.2007C24.2997 23.9533 22.0797 25.0049 19.8597 25.1217C17.5229 25.0049 15.4197 23.9533 14.0176 22.2007C13.3166 21.266 12.0313 21.1491 11.0966 21.8502C10.2787 22.5512 10.045 23.7196 10.6292 24.6544C12.8492 27.4586 16.2376 29.0944 19.7428 29.2112C23.3649 29.0944 26.6365 27.4586 28.8565 24.6544C29.207 24.187 29.3238 23.7196 29.207 23.1354C29.3238 22.6681 29.0902 22.0839 28.6228 21.8502Z" fill="#EDE2E2"/>
<path opacity="0.999" d="M54.6811 29.2133C52.6948 29.3302 50.7085 28.8628 48.9559 27.8112C48.2548 27.4607 47.9043 26.7596 47.9043 26.0586C47.9043 25.7081 48.0211 25.3575 48.2548 25.007C48.4885 24.7733 48.839 24.5396 49.1896 24.6565C49.7738 24.6565 50.2411 24.8902 50.7085 25.1239C51.2927 25.4744 51.9937 25.7081 52.578 25.8249C53.279 26.0586 53.9801 26.0586 54.7979 26.0586C55.499 26.0586 56.3169 25.9417 56.9011 25.5912C57.3685 25.3575 57.719 24.8902 57.719 24.306C57.719 23.9554 57.6021 23.7218 57.3685 23.3712C57.0179 23.1376 56.6674 22.9039 56.3169 22.787C55.499 22.5533 54.6811 22.3197 53.8632 22.2028C52.3443 21.9691 50.9422 21.3849 49.7738 20.567C48.9559 19.866 48.4885 18.6976 48.4885 17.646C48.4885 16.7113 48.7222 15.7765 49.3064 15.0755C49.8906 14.2576 50.7085 13.6734 51.6432 13.3229C52.6948 12.8555 53.8632 12.6218 55.0316 12.7387C55.9664 12.7387 56.7842 12.8555 57.6021 13.0892C58.42 13.3229 59.1211 13.6734 59.8221 14.0239C60.4063 14.3744 60.8737 15.0755 60.8737 15.7765C60.8737 16.1271 60.7569 16.5944 60.5232 16.8281C60.2895 17.0618 59.939 17.2955 59.5884 17.2955C59.3548 17.2955 59.1211 17.2955 58.8874 17.1786C58.5369 17.0618 58.3032 16.945 58.0695 16.7113C57.6021 16.4776 57.0179 16.2439 56.4337 16.0102C55.8495 15.7765 55.2653 15.7765 54.7979 15.7765C54.0969 15.7765 53.5127 15.8934 52.9285 16.2439C52.4611 16.4776 52.2274 17.0618 52.2274 17.5292C52.2274 17.9965 52.4611 18.5807 52.9285 18.8144C53.7464 19.2818 54.6811 19.5155 55.7327 19.6323C56.9011 19.866 58.0695 20.2165 59.1211 20.6839C59.8221 21.0344 60.4063 21.5018 60.8737 22.086C61.2242 22.787 61.4579 23.4881 61.4579 24.306C61.4579 25.7081 60.7569 27.1102 59.5884 27.8112C58.0695 28.7459 56.4337 29.2133 54.6811 29.2133ZM84.1252 12.6218C85.6441 12.505 87.0462 13.0892 88.0978 14.1408C89.1493 15.5429 89.6167 17.2955 89.4999 19.1649V27.1102C89.4999 27.6944 89.383 28.1617 88.9157 28.5123C88.4483 28.8628 87.9809 29.0965 87.3967 28.9796C86.8125 28.9796 86.3451 28.8628 85.9946 28.5123C85.6441 28.1617 85.4104 27.5775 85.4104 27.1102V19.1649C85.5273 18.2302 85.2936 17.4123 84.8262 16.5944C84.3588 16.0102 83.6578 15.7765 82.8399 15.7765C81.9052 15.7765 80.9704 16.1271 80.2694 16.8281C79.5683 17.646 79.2178 18.6976 79.3347 19.7491V26.9933C79.3347 27.5775 79.2178 28.0449 78.7505 28.3954C78.3999 28.7459 77.8157 28.8628 77.3483 28.8628C76.7641 28.8628 76.2968 28.7459 75.9463 28.3954C75.5957 28.0449 75.362 27.4607 75.362 26.9933V19.0481C75.4789 18.1134 75.2452 17.2955 74.7778 16.4776C74.3105 15.8934 73.6094 15.6597 72.7915 15.6597C71.8568 15.6597 70.9221 16.0102 70.221 16.7113C69.52 17.5292 69.2863 18.5807 69.2863 19.6323V26.8765C69.2863 27.4607 69.0526 27.9281 68.7021 28.2786C68.3516 28.6291 67.7673 28.7459 67.3 28.7459C66.7158 28.7459 66.2484 28.6291 65.8979 28.2786C65.5474 27.9281 65.3137 27.3438 65.3137 26.8765V14.6081C65.3137 14.0239 65.5474 13.5565 65.8979 13.206C66.3653 12.8555 66.8326 12.7387 67.3 12.7387C67.7673 12.7387 68.3516 12.8555 68.7021 13.206C69.0526 13.5565 69.2863 14.0239 69.2863 14.6081V15.426C69.7537 14.6081 70.4547 13.9071 71.2726 13.4397C72.2073 12.9723 73.1421 12.7387 74.1936 12.7387C76.2968 12.505 78.2831 13.7902 78.9841 15.7765C79.4515 14.8418 80.1525 14.1408 81.0873 13.5565C82.022 12.9723 83.0736 12.6218 84.1252 12.6218ZM96.2767 29.0965C95.6925 29.0965 95.2251 28.9796 94.8746 28.6291C94.524 28.2786 94.2904 27.6944 94.2904 27.227V14.6081C94.2904 14.0239 94.4072 13.5565 94.8746 13.206C95.2251 12.8555 95.8093 12.7387 96.2767 12.7387C96.8609 12.7387 97.3282 12.8555 97.6788 13.206C98.0293 13.5565 98.263 14.1408 98.263 14.6081V27.1102C98.263 27.6944 98.0293 28.1617 97.6788 28.5123C97.3282 28.9796 96.8609 29.0965 96.2767 29.0965ZM96.2767 9.81762C95.6925 9.81762 94.9914 9.58394 94.5241 9.23341C94.0567 8.88289 93.823 8.29868 93.823 7.71447C93.823 7.13027 94.0567 6.54606 94.5241 6.19554C94.9914 5.72817 95.6925 5.61133 96.2767 5.61133C96.8609 5.61133 97.5619 5.84501 98.0293 6.19554C98.4967 6.54606 98.7303 7.13027 98.7303 7.71447C98.7303 8.29868 98.4967 8.88289 98.0293 9.23341C97.5619 9.70078 96.9777 9.81762 96.2767 9.81762ZM105.157 29.0965C104.572 29.0965 104.105 28.9796 103.755 28.6291C103.404 28.2786 103.17 27.6944 103.17 27.227V7.83132C103.17 7.24711 103.287 6.77974 103.755 6.42922C104.222 6.07869 104.689 5.84501 105.157 5.84501C105.741 5.84501 106.208 5.96185 106.559 6.31238C106.909 6.6629 107.143 7.24711 107.143 7.71447V27.1102C107.143 27.6944 106.909 28.1617 106.559 28.5123C106.208 28.9796 105.741 29.0965 105.157 29.0965ZM124.669 24.5396C125.02 24.5396 125.37 24.6565 125.604 25.007C125.838 25.3575 125.954 25.7081 125.954 26.1754C125.954 26.8765 125.487 27.5775 124.786 27.8112C123.968 28.2786 123.15 28.6291 122.332 28.7459C121.514 28.9796 120.58 29.0965 119.645 29.0965C117.425 29.2133 115.205 28.3954 113.569 26.8765C112.05 25.2407 111.232 23.0207 111.349 20.8007C111.349 19.2818 111.7 17.8797 112.284 16.4776C112.868 15.3092 113.803 14.2576 114.971 13.5565C116.14 12.8555 117.542 12.505 118.944 12.505C120.229 12.505 121.514 12.8555 122.683 13.4397C123.734 14.0239 124.552 14.9586 125.137 16.1271C125.721 17.4123 126.071 18.8144 126.071 20.2165C126.071 21.1512 125.604 21.6186 124.786 21.6186H115.205C115.205 22.787 115.672 23.9554 116.49 24.8902C117.308 25.5912 118.477 26.0586 119.645 25.9417C120.229 25.9417 120.93 25.8249 121.514 25.7081C122.099 25.4744 122.683 25.2407 123.267 25.007C123.618 24.7733 124.085 24.6565 124.669 24.5396ZM119.061 15.5429C118.126 15.5429 117.074 15.8934 116.373 16.5944C115.672 17.4123 115.205 18.4639 115.205 19.6323H122.566C122.566 18.5807 122.215 17.5292 121.631 16.5944C120.93 15.7765 119.995 15.426 119.061 15.5429Z" fill="#EDE2E2"/>
</svg>
