<svg width="136" height="21" viewBox="0 0 136 21" fill="none" xmlns="http://www.w3.org/2000/svg">
<path d="M0 19.9675V0.338166H4.26238L10.5157 12.7888L16.685 0.338166H20.9473V19.9675H17.358V6.42327L11.8898 17.1633H9.05755L3.5847 6.42327V19.9675H0ZM27.5652 19.9675V0.338166H31.1593V19.9675H27.5652ZM37.7725 19.9675V0.338166H42.0349L48.2883 12.7888L54.4575 0.338166H58.7199V19.9675H55.1305V6.42327L49.6623 17.1633H46.8301L41.3619 6.42327V19.9675H37.7725ZM74.5355 20.304C72.7374 20.3461 70.9613 19.9021 69.3945 19.0188C67.9364 18.1687 66.7425 16.9311 65.9453 15.4434C65.0858 13.8147 64.6547 11.9941 64.6928 10.1529C64.6541 8.31361 65.0835 6.4947 65.9407 4.86694C66.7379 3.37929 67.9318 2.1417 69.3898 1.29159C70.9566 0.408288 72.7327 -0.0357455 74.5309 0.00633533C74.5309 0.00633533 83.1654 0.00633533 83.3781 0.00633533C85.1013 -0.00650559 86.7972 0.436924 88.2936 1.29159C89.7558 2.13638 90.951 3.37532 91.7428 4.86694C92.5926 6.49708 93.0185 8.31487 92.9813 10.1529C93.0199 11.9904 92.5956 13.8082 91.7474 15.4388C90.9548 16.9309 89.7583 18.1698 88.2948 19.0141C86.793 19.8482 85.1052 20.2902 83.3874 20.2994C83.565 20.2994 74.7412 20.304 74.5355 20.304ZM74.5355 17.0792C74.5355 17.0792 83.1701 17.0792 83.4155 17.0792C84.2108 17.092 84.9995 16.9336 85.7283 16.6149C86.457 16.2962 87.1087 15.8245 87.6393 15.2319C88.8175 13.8107 89.4136 11.9959 89.3078 10.1529C89.4127 8.31097 88.8166 6.49762 87.6393 5.07726C87.0901 4.49085 86.4258 4.02403 85.688 3.70599C84.9501 3.38794 84.1547 3.2255 83.3512 3.22882C83.537 3.22882 74.7236 3.22882 74.5367 3.22882C73.6993 3.19282 72.8641 3.33974 72.0892 3.65937C71.3144 3.979 70.6185 4.46365 70.05 5.07959C68.8643 6.49521 68.2623 8.30923 68.3663 10.1529C68.2614 11.9971 68.863 13.8121 70.0488 15.2284C70.6173 15.8444 71.3132 16.329 72.0881 16.6487C72.8629 16.9683 73.6981 17.1152 74.5355 17.0792ZM105.656 20.304C104.347 20.3299 103.047 20.0766 101.843 19.5609C100.791 19.108 99.8879 18.3697 99.2346 17.4297C98.576 16.4273 98.234 15.25 98.2532 14.0507H102.039C102.057 14.922 102.414 15.7519 103.034 16.3641C103.381 16.6872 103.79 16.9366 104.236 17.0973C104.681 17.2579 105.155 17.3265 105.628 17.2989C106.442 17.3427 107.246 17.0996 107.9 16.6118C108.173 16.393 108.391 16.1135 108.538 15.7954C108.684 15.4774 108.754 15.1296 108.742 14.7798C108.762 14.4315 108.706 14.083 108.577 13.7586C108.449 13.4342 108.252 13.1415 107.999 12.901C107.421 12.4059 106.748 12.0338 106.022 11.8073L103.386 10.91C102.089 10.5167 100.903 9.82519 99.9217 8.89096C99.5156 8.4503 99.2011 7.93334 98.9965 7.37011C98.7919 6.80688 98.7013 6.20861 98.7299 5.61005C98.6827 4.55211 98.9723 3.50647 99.5571 2.62358C100.144 1.777 100.953 1.10775 101.894 0.688689C102.971 0.212968 104.138 -0.0215192 105.315 0.00166201C106.507 -0.0224921 107.69 0.21689 108.778 0.702709C109.729 1.12844 110.544 1.80756 111.134 2.66565C111.72 3.55741 112.036 4.59916 112.045 5.66614H108.208C108.189 4.97361 107.903 4.31535 107.409 3.82939C107.126 3.5547 106.79 3.34179 106.42 3.20421C106.051 3.06662 105.657 3.00736 105.264 3.03019C104.558 2.98917 103.859 3.19395 103.287 3.60973C103.021 3.81469 102.809 4.08149 102.67 4.38693C102.53 4.69238 102.468 5.02722 102.488 5.36235C102.473 5.65076 102.521 5.93886 102.628 6.2073C102.734 6.47574 102.897 6.71829 103.104 6.91868C103.596 7.34894 104.168 7.67773 104.787 7.88613C105.497 8.14785 106.311 8.42827 107.227 8.72738C108.147 9.04112 109.039 9.43522 109.891 9.90515C110.671 10.3322 111.335 10.9435 111.825 11.6858C112.343 12.5422 112.597 13.5322 112.555 14.5321C112.56 15.5395 112.289 16.529 111.769 17.3923C111.209 18.3007 110.402 19.0316 109.443 19.5002C108.264 20.0681 106.965 20.3438 105.656 20.304ZM117.238 19.9675L124.416 0.338166H128.454L135.633 19.9675H131.819L130.249 15.4247H122.594L120.995 19.9675H117.238ZM123.575 12.6205H129.268L126.407 4.46033L123.575 12.6205Z" fill="#EDE2E2"/>
</svg>
