<?xml version="1.0" encoding="UTF-8"?>
<svg version="1.1" xmlns="http://www.w3.org/2000/svg" width="500" height="500">
<path d="M0 0 C1.093125 0.00257813 2.18625 0.00515625 3.3125 0.0078125 C4.405625 0.00523437 5.49875 0.00265625 6.625 0 C9.3125 0.1328125 9.3125 0.1328125 10.3125 1.1328125 C10.40097743 3.65375326 10.42777301 6.14712143 10.41015625 8.66796875 C10.4087413 9.42121933 10.40732635 10.17446991 10.40586853 10.95054626 C10.40025376 13.3655081 10.38769883 15.78037851 10.375 18.1953125 C10.3699869 19.82877471 10.36542366 21.46223836 10.36132812 23.09570312 C10.35027954 27.10810835 10.33300506 31.12044491 10.3125 35.1328125 C10.90595215 34.02728027 11.4994043 32.92174805 12.11083984 31.78271484 C14.31007171 27.68580206 16.94734631 25.68159627 21.3125 24.1328125 C24.13063441 23.57301795 26.81922959 23.46554189 29.6875 23.5078125 C30.43265869 23.51256592 31.17781738 23.51731934 31.94555664 23.5222168 C38.2772242 23.75774627 42.81282127 25.52092233 47.3125 30.1328125 C47.9725 31.1228125 48.6325 32.1128125 49.3125 33.1328125 C49.704375 32.3903125 50.09625 31.6478125 50.5 30.8828125 C52.53401327 27.7967234 54.22070251 26.1612708 57.3125 24.1328125 C60.72265625 23.63671875 60.72265625 23.63671875 64.375 23.6953125 C66.18677734 23.69724609 66.18677734 23.69724609 68.03515625 23.69921875 C71.44534425 24.15038784 72.84353578 24.81161672 75.3125 27.1328125 C76.3025 25.6478125 76.3025 25.6478125 77.3125 24.1328125 C79.66015625 23.8046875 79.66015625 23.8046875 82.375 23.8828125 C83.27347656 23.89828125 84.17195313 23.91375 85.09765625 23.9296875 C87.3125 24.1328125 87.3125 24.1328125 88.3125 25.1328125 C88.54442865 26.64750698 88.72465238 28.17035812 88.875 29.6953125 C88.95878906 30.52160156 89.04257812 31.34789062 89.12890625 32.19921875 C89.18949219 32.83730469 89.25007813 33.47539062 89.3125 34.1328125 C90.364375 32.493125 90.364375 32.493125 91.4375 30.8203125 C93.78196608 27.16570361 96.27600387 25.70964257 100.3125 24.1328125 C103.09529113 23.65788188 105.80515307 23.56090674 108.625 23.5703125 C109.37539551 23.57272949 110.12579102 23.57514648 110.89892578 23.57763672 C116.40082712 23.76003995 120.18178316 24.87103767 124.6484375 28.234375 C129.67913392 33.97362021 129.84491839 39.52211676 129.65234375 46.84765625 C129.21407014 51.0843011 128.37452099 53.14734204 125.3125 56.1328125 C124.57773437 56.85404297 124.57773437 56.85404297 123.828125 57.58984375 C118.30963483 62.02172856 111.87012941 61.89422503 105.109375 61.55078125 C99.6143206 60.945873 95.58972041 59.8157446 91.953125 55.53125 C90.8125 53.8828125 90.8125 53.8828125 89.3125 51.1328125 C89.23902344 52.52693359 89.23902344 52.52693359 89.1640625 53.94921875 C88.93817243 57.6841943 88.64794082 61.40614679 88.3125 65.1328125 C88.24804688 65.88433594 88.18359375 66.63585937 88.1171875 67.41015625 C87.60319489 70.31619141 86.53009124 71.94594003 84.3203125 73.84375 C77.09534048 78.88938619 71.07088762 79.94754623 62.3125 79.1328125 C56.95566099 77.85935206 52.62028536 76.35143068 48.5625 72.5703125 C48.15 71.7659375 47.7375 70.9615625 47.3125 70.1328125 C48.3125 67.1328125 48.3125 67.1328125 50.59765625 65.96484375 C51.51417969 65.62839844 52.43070313 65.29195313 53.375 64.9453125 C54.75365234 64.42904297 54.75365234 64.42904297 56.16015625 63.90234375 C56.87042969 63.64839844 57.58070313 63.39445312 58.3125 63.1328125 C58.993125 63.7928125 59.67375 64.4528125 60.375 65.1328125 C64.07522533 67.65211485 65.9156656 67.8394466 70.3125 67.1328125 C73.1785458 64.88982014 74.91178073 63.27332118 76.125 59.8203125 C76.186875 59.2634375 76.24875 58.7065625 76.3125 58.1328125 C75.62027344 58.61878906 74.92804688 59.10476563 74.21484375 59.60546875 C69.17165481 62.25942148 63.86949427 61.76889612 58.3125 61.1328125 C54.23498097 59.6354185 51.63901839 56.7518411 49.3125 53.1328125 C48.85359375 53.54273438 48.3946875 53.95265625 47.921875 54.375 C47.30828125 54.91382813 46.6946875 55.45265625 46.0625 56.0078125 C45.45921875 56.54148437 44.8559375 57.07515625 44.234375 57.625 C37.81007387 62.66520373 30.09007375 61.75008026 22.3125 61.1328125 C17.54739915 59.91383321 14.60423878 57.91744869 11.8125 53.8828125 C11.07 52.5215625 11.07 52.5215625 10.3125 51.1328125 C10.25191406 51.77089844 10.19132813 52.40898437 10.12890625 53.06640625 C10.04511719 53.89269531 9.96132812 54.71898437 9.875 55.5703125 C9.79378906 56.39402344 9.71257812 57.21773438 9.62890625 58.06640625 C9.3125 60.1328125 9.3125 60.1328125 8.3125 61.1328125 C6.45477838 61.04296949 4.60002015 60.88669389 2.75 60.6953125 C1.73808594 60.59347656 0.72617188 60.49164063 -0.31640625 60.38671875 C-1.09886719 60.30292969 -1.88132813 60.21914063 -2.6875 60.1328125 C-2.84110914 52.45754741 -2.98929086 44.78219405 -3.1304636 37.10669041 C-3.19618172 33.54299224 -3.26379855 29.97935082 -3.33569336 26.41577148 C-3.41818566 22.32284616 -3.49252956 18.22980871 -3.56640625 14.13671875 C-3.59344131 12.85132706 -3.62047638 11.56593536 -3.64833069 10.24159241 C-3.66842697 9.06044357 -3.68852325 7.87929474 -3.70922852 6.66235352 C-3.72921402 5.61644547 -3.74919952 4.57053741 -3.76979065 3.49293518 C-3.65180945 0.10919598 -3.40388548 0.16821527 0 0 Z M22.3125 39.1328125 C21.06848722 41.51889861 21.06848722 41.51889861 21.3125 44.1328125 C22.67077246 47.50378988 22.67077246 47.50378988 25.3125 50.1328125 C28.70668221 51.54631019 28.70668221 51.54631019 32.3125 51.1328125 C35.41600449 49.27939916 35.41600449 49.27939916 37.3125 46.1328125 C37.9849224 41.9488509 37.74033478 39.90620615 35.6875 36.1953125 C33.44735542 33.91371606 33.44735542 33.91371606 30.375 33.5078125 C26.28995094 34.34149598 24.84829885 35.87249969 22.3125 39.1328125 Z M63 35.6328125 C60.70079937 39.03903565 59.84923919 42.02035691 60.3125 46.1328125 C62.1258497 49.3629302 62.1258497 49.3629302 65.3125 51.1328125 C69.60497606 51.2834257 71.53300496 50.79538329 74.8125 48.0078125 C76.80796009 44.18318066 76.50629979 42.23649929 75.3125 38.1328125 C73.76964369 35.58950012 73.76964369 35.58950012 71.3125 34.1328125 C67.7337394 33.5363524 66.05594041 33.65058088 63 35.6328125 Z M101.3125 38.1328125 C100.10915576 42.26930834 99.79665755 44.18366239 101.875 48.0078125 C104.83152195 50.58529318 106.40217888 51.1328125 110.3125 51.1328125 C113.25822012 50.4488776 113.25822012 50.4488776 115.3125 48.1328125 C116.38019069 45.06541383 116.69112815 42.35962851 116.3125 39.1328125 C114.4360883 35.92268203 114.4360883 35.92268203 111.3125 34.1328125 C106.4776649 33.24478156 104.11617321 34.08306231 101.3125 38.1328125 Z " fill="#0B0B0B" transform="translate(187.6875,204.8671875)"/>
<path d="M0 0 C1.093125 0.00257813 2.18625 0.00515625 3.3125 0.0078125 C4.405625 0.00523437 5.49875 0.00265625 6.625 0 C9.3125 0.1328125 9.3125 0.1328125 10.3125 1.1328125 C10.35342937 3.46578683 10.35491723 5.79986475 10.3125 8.1328125 C9.9825 8.1328125 9.6525 8.1328125 9.3125 8.1328125 C9.3125 6.1528125 9.3125 4.1728125 9.3125 2.1328125 C5.6825 2.1328125 2.0525 2.1328125 -1.6875 2.1328125 C-1.6875 21.2728125 -1.6875 40.4128125 -1.6875 60.1328125 C-2.0175 60.1328125 -2.3475 60.1328125 -2.6875 60.1328125 C-2.84110914 52.45754741 -2.98929086 44.78219405 -3.1304636 37.10669041 C-3.19618172 33.54299224 -3.26379855 29.97935082 -3.33569336 26.41577148 C-3.41818566 22.32284616 -3.49252956 18.22980871 -3.56640625 14.13671875 C-3.59344131 12.85132706 -3.62047638 11.56593536 -3.64833069 10.24159241 C-3.66842697 9.06044357 -3.68852325 7.87929474 -3.70922852 6.66235352 C-3.72921402 5.61644547 -3.74919952 4.57053741 -3.76979065 3.49293518 C-3.65180945 0.10919598 -3.40388548 0.16821527 0 0 Z " fill="#565656" transform="translate(187.6875,204.8671875)"/>
<path d="M0 0 C-1.49097658 3.7952131 -3.75700849 5.61042731 -7 8 C-6.44414399 4.1090079 -4.34122117 0 0 0 Z " fill="#5C5C5C" transform="translate(245,230)"/>
</svg>
