<svg width="24" height="24" viewBox="0 0 24 24" fill="none" xmlns="http://www.w3.org/2000/svg">
<path d="M19.633 7.99753C19.646 8.17253 19.646 8.34653 19.646 8.52053C19.646 13.8455 15.593 19.9815 8.186 19.9815C5.904 19.9815 3.784 19.3205 2 18.1725C2.324 18.2095 2.636 18.2225 2.973 18.2225C4.856 18.2225 6.589 17.5865 7.974 16.5015C6.203 16.4645 4.719 15.3045 4.207 13.7085C4.456 13.7455 4.706 13.7705 4.968 13.7705C5.329 13.7705 5.692 13.7205 6.029 13.6335C4.182 13.2595 2.799 11.6385 2.799 9.68053V9.63053C3.336 9.92953 3.959 10.1165 4.619 10.1415C3.534 9.41953 2.823 8.18453 2.823 6.78753C2.823 6.03953 3.022 5.35353 3.371 4.75553C5.354 7.19853 8.335 8.79553 11.677 8.97053C11.615 8.67053 11.577 8.35953 11.577 8.04753C11.577 5.82753 13.373 4.01953 15.605 4.01953C16.765 4.01953 17.812 4.50553 18.548 5.29153C19.458 5.11653 20.33 4.77953 21.104 4.31853C20.805 5.25353 20.168 6.03953 19.333 6.53853C20.144 6.45053 20.93 6.22653 21.652 5.91453C21.104 6.71253 20.419 7.42353 19.633 7.99753Z" fill="#EDE2E2"/>
</svg>
